<?xml version="1.0" encoding="utf-8"?>
<!-- Generator: Adobe Illustrator 24.1.0, SVG Export Plug-In . SVG Version: 6.00 Build 0)  -->
<svg version="1.1" id="Layer_1" xmlns="http://www.w3.org/2000/svg" xmlns:xlink="http://www.w3.org/1999/xlink" x="0px" y="0px"
	 viewBox="0 0 100 92.8" style="enable-background:new 0 0 100 92.8;" xml:space="preserve">
<path d="M70.2,19.8c2.1,0,3.8-1.7,3.8-3.8V3.8c0-2.1-1.7-3.8-3.8-3.8c-2.1,0-3.8,1.7-3.8,3.8v12.3C66.4,18.2,68.1,19.8,70.2,19.8z
	 M29.8,19.8c2.1,0,3.8-1.7,3.8-3.8V3.8c0-2.1-1.7-3.8-3.8-3.8c-2.1,0-3.8,1.7-3.8,3.8v12.3C26.1,18.2,27.8,19.8,29.8,19.8z
	 M91.8,9.2H78.4v6.9c0,4.5-3.7,8.2-8.2,8.2s-8.2-3.7-8.2-8.2V9.2H38.1v6.9c0,4.5-3.7,8.2-8.2,8.2s-8.2-3.7-8.2-8.2V9.2H8.2
	c-2.8,0-5,2.2-5,5v20.5h93.7V14.2C96.8,11.4,94.6,9.2,91.8,9.2z M3.2,87.8c0,2.8,2.2,5,5,5h83.7c2.8,0,5-2.2,5-5V38.7H3.2V87.8z
	 M72.4,50.5h12.8v12.8H72.4V50.5z M72.4,68.8h12.8v12.8H72.4V68.8z M53.2,50.5H66v12.8H53.2V50.5z M53.2,68.8H66v12.8H53.2V68.8z
	 M34,50.5h12.8v12.8H34V50.5z M34,68.8h12.8v12.8H34V68.8z M14.8,50.5h12.8v12.8H14.8V50.5z M14.8,68.8h12.8v12.8H14.8V68.8z"/>
</svg>
