<?xml version="1.0" encoding="utf-8"?>
<!-- Generator: Adobe Illustrator 24.1.0, SVG Export Plug-In . SVG Version: 6.00 Build 0)  -->
<svg version="1.1"
	 id="Layer_1" xmlns:cc="http://creativecommons.org/ns#" xmlns:dc="http://purl.org/dc/elements/1.1/" xmlns:inkscape="http://www.inkscape.org/namespaces/inkscape" xmlns:rdf="http://www.w3.org/1999/02/22-rdf-syntax-ns#" xmlns:sodipodi="http://sodipodi.sourceforge.net/DTD/sodipodi-0.dtd" xmlns:svg="http://www.w3.org/2000/svg"
	 xmlns="http://www.w3.org/2000/svg" xmlns:xlink="http://www.w3.org/1999/xlink" x="0px" y="0px" viewBox="0 0 82 68"
	 style="enable-background:new 0 0 82 68;" xml:space="preserve">
<g transform="translate(0,-952.36218)">
	<path d="M29,952.4l-5,10H7c-3.9,0-7,3.1-7,7v44c0,3.9,3.1,7,7,7h68c3.9,0,7-3.1,7-7v-44c0-3.9-3.1-7-7-7H58l-5-10H29z M41,969.4
		c12.1,0,22,9.9,22,22c0,12.1-9.9,22-22,22c-12.1,0-22-9.9-22-22S28.9,969.4,41,969.4z M41,977.4c-7.8,0-14,6.2-14,14s6.2,14,14,14
		c7.8,0,14-6.2,14-14C55,983.6,48.8,977.4,41,977.4z"/>
</g>
</svg>
