<?xml version="1.0" encoding="utf-8"?>
<!-- Generator: Adobe Illustrator 24.1.0, SVG Export Plug-In . SVG Version: 6.00 Build 0)  -->
<svg version="1.1" id="Layer_1" xmlns="http://www.w3.org/2000/svg" xmlns:xlink="http://www.w3.org/1999/xlink" x="0px" y="0px"
	 viewBox="0 0 398 72" style="enable-background:new 0 0 398 72;" xml:space="preserve">
<style type="text/css">
	.st0{fill:#404040;}
</style>
<desc>Created with Sketch.</desc>
<g id="Page-1">
	<path class="st0" d="M61.4,22.2c-1.8-3.6-4.2-6.5-7-8.8c-2.9-2.2-6.1-3.9-9.8-4.9c-3.6-1-7.3-1.6-11-1.6c-3.7,0-7.6,0.8-11.5,2.3
		c-3.9,1.5-7.5,3.7-10.7,6.7c-3.2,3-5.8,6.6-7.8,11c-2,4.4-3,9.4-3,15.1c0,5.3,1,9.8,2.9,13.5s4.3,6.8,7.1,9.2s5.9,4.1,9.2,5.2
		c3.3,1.1,6.3,1.7,9.1,1.7c4.2,0,7.7-0.3,10.4-1s5-1.4,6.8-2.3c1.7-0.9,2.9-1.8,3.7-2.8c0.7-1,1.1-1.7,1.1-2.3
		c0-0.4-0.1-0.7-0.4-0.9c-0.2-0.2-0.6-0.4-1-0.6c-0.4,0.3-1,0.8-1.7,1.4c-0.7,0.6-1.7,1.3-3,2s-3.1,1.3-5.2,1.7s-4.9,0.7-8.4,0.7
		c-4.8,0-8.7-0.9-11.9-2.7c-3.1-1.8-5.6-4-7.4-6.6C10,55.6,8.7,52.8,8,49.8c-0.7-3-1.1-5.7-1.1-8.2c0-1.5,0.2-3.2,0.5-5.3
		s0.9-4.2,1.7-6.4c0.8-2.2,1.9-4.4,3.2-6.6s3-4.2,5-5.9c2-1.7,4.4-3.2,7.2-4.2c2.8-1.1,6.1-1.6,9.8-1.6c4.7,0,8.7,0.8,11.9,2.3
		c3.2,1.5,5.8,3.4,7.7,5.8c1.9,2.3,3.3,5,4.1,7.9s1.2,5.8,1.2,8.7c0,2.6-0.2,5.1-0.6,7.3c-0.4,2.2-1,4.2-1.7,5.8s-1.6,2.8-2.6,3.7
		s-2.1,1.3-3.4,1.3c-2.2,0-3.3-2-3.8-3.9c-0.4-1.6-0.5-3.3-0.6-5c-0.2-2.8-0.3-5.6-0.4-8.4c-0.1-2.6,0-5.3-0.3-7.9
		c-0.1-0.9-0.3-1.7-0.7-2.5c-0.4-0.8-0.9-1.5-1.5-2.2s-1.5-1.2-2.6-1.7c-1.5,0-2.5-0.2-3.1-0.5c-0.6-0.3-1.2-0.6-1.6-1
		c-0.5-0.4-1-0.7-1.6-1c-0.6-0.3-1.6-0.5-3-0.5c-1.8,0-3.5,0.5-4.9,1.6c-1.4,1-2.6,2.4-3.7,4s-1.9,3.5-2.6,5.5s-1.3,4-1.7,5.9
		s-0.8,3.7-1,5.4s-0.3,3-0.3,4c0,1.4,0.1,2.9,0.3,4.4s0.6,2.9,1.2,4.1c0.6,1.3,1.4,2.3,2.4,3.1c1,0.8,2.3,1.2,3.9,1.2
		c0.6,0,1,0.1,1.4,0.2c0.4,0.2,0.7,0.3,1,0.5l0.9,0.5c0.3,0.2,0.6,0.2,1,0.2c1.5,0,2.8-0.4,3.9-1.1c1.1-0.7,2.1-1.6,3-2.6
		c0.9-1,1.6-2.2,2.2-3.4s1.1-2.3,1.6-3.3c0.1,2.3,1,4.3,2.5,5.8c1.6,1.5,3.8,2.3,6.6,2.3c2.9,0,5.3-0.7,7.1-2.2s3.4-3.3,4.5-5.6
		s1.9-4.7,2.3-7.4c0.5-2.7,0.7-5.2,0.7-7.6C64.1,30.2,63.2,25.8,61.4,22.2z M39.7,34.8c0,0.1-0.3,0.3-0.8,0.6
		c-0.6,0.3-0.9,0.9-1,1.8c-0.2,1.8-0.6,3.9-1.1,6.1c-0.5,2.2-1.1,4.3-1.8,6.2c-0.8,1.9-1.7,3.5-2.8,4.8s-2.4,1.9-4,1.9
		c-0.9,0-1.5-0.4-2.1-1.2c-0.5-0.8-0.9-1.7-1.2-2.8s-0.5-2.3-0.6-3.5c-0.1-1.3-0.1-2.3-0.1-3.3c0-1.3,0.1-3.1,0.4-5.3
		c0.2-2.3,0.7-4.5,1.5-6.8s1.7-4.2,3-5.8c1.3-1.6,3-2.4,5.1-2.4c1.2,0,2.2,0.3,2.9,1c0.7,0.7,1.3,1.5,1.7,2.4s0.7,1.9,0.8,2.9
		c0.1,1,0.2,1.9,0.2,2.5L39.7,34.8z"/>
	<path class="st0" d="M112.9,49.2c-0.6-0.5-1.5-0.7-2.8-0.7c-1,0-2.1,0.4-3.1,1.2c-1,0.8-2.3,2.1-4,4c-0.5,0.6-1.1,1.1-1.9,1.4
		c-0.8,0.3-1.7,0.6-2.7,0.8c-1,0.2-2,0.3-3.1,0.3c-1.1,0-2.1,0-3.1,0c-1.1,0-2.5-0.1-4.1-0.2s-3.3-0.5-4.8-1
		c-1.6-0.6-2.9-1.3-4.1-2.4c-1.2-1-1.9-2.5-2.1-4.3c0-0.5,0-0.9,0.1-1.3s0.2-0.8,0.6-1.3c0.9-1.6,2.1-2.9,3.5-3.8
		c1.4-0.9,2.9-1.6,4.5-2c1.6-0.4,3.2-0.7,4.9-0.8s3.2-0.1,4.5-0.1c1.2,0,2.4,0,3.5,0c1.1,0,2.6,0.1,4.6,0.1c0.3-0.3,0.5-0.7,0.6-1.2
		s0.1-1,0.1-1.5c0-1.2-0.3-2.4-0.9-3.8c-0.6-1.3-1.3-2.2-1.9-2.7c-0.1,0.3-0.5,0.5-1.2,0.7s-1,0.2-1.2,0.2c-3.1,0-6-0.2-8.6-0.7
		c-2.6-0.5-4.8-1.2-6.7-2.1S80,25.9,79,24.5s-1.5-3.1-1.5-5.1c0-1.8,0.7-3.2,2.2-4.3c1.4-1.1,3.1-1.9,5.1-2.5c2-0.6,3.9-1,5.9-1.2
		c2-0.2,3.5-0.3,4.6-0.3h5.8c0.8,0,1.7,0.1,2.6,0.2c0.9,0.2,1.8,0.4,2.7,0.8c0.9,0.4,1.7,0.9,2.3,1.5c0.7,0.6,1.2,1.5,1.5,2.4
		c0.6-0.6,0.9-1.2,1.1-1.9c0.2-0.6,0.3-1.3,0.3-2.1c-0.1-0.9-0.3-1.7-0.8-2.6c-0.5-0.9-1-1.7-1.6-2.6s-1.3-1.6-1.9-2.3
		c-0.7-0.7-1.3-1.3-1.8-1.9c-0.1-0.1-0.4-0.2-0.9-0.3c-0.5-0.1-1.1-0.2-1.7-0.2s-1.3-0.1-1.9-0.1c-0.6,0-1.1,0-1.4,0h-4.2
		c-2.2,0-4.8,0.3-7.7,0.9c-2.9,0.6-5.7,1.5-8.3,2.6c-2.6,1.2-4.8,2.6-6.6,4.4c-1.8,1.7-2.7,3.8-2.7,6.2c0,1.2,0.3,2.5,0.9,4.1
		c0.6,1.6,1.5,3.1,2.6,4.7s2.5,3.1,4,4.5c1.6,1.4,3.4,2.5,5.3,3.4c-1.2,0.6-2.5,1-4,1.5c-1.5,0.4-2.9,1-4.3,1.7s-2.7,1.6-3.8,2.7
		s-2,2.6-2.6,4.5c0,0.6,0.2,1.4,0.5,2.3s0.8,1.9,1.3,2.9c0.6,1,1.2,2,1.8,3.1c0.6,1,1.3,2,1.9,2.9c1.1,1.6,2.3,2.8,3.7,3.7
		s2.8,1.5,4.2,1.9c1.4,0.4,2.8,0.7,4.1,0.7c1.3,0.1,2.5,0.1,3.5,0.1c1.8,0,3.7-0.1,5.8-0.2c2.1-0.2,4.2-0.5,6.3-1.1
		c2.1-0.6,4.2-1.3,6.2-2.3c2-1,3.8-2.4,5.3-4.1c0.5-0.5,0.8-0.9,0.9-1.3c0.1-0.4,0.1-0.8,0.1-1.3C113.8,50.2,113.5,49.6,112.9,49.2z
		"/>
	<path class="st0" d="M397.3,32.9c-0.1-0.4-0.3-0.6-0.6-0.6c-0.6,0-1,0.2-1.3,0.6c-0.2,0.4-0.5,0.9-0.7,1.5
		c-0.2,0.6-0.5,1.3-0.8,2.1c-0.3,0.7-0.8,1.5-1.3,2.3c-0.6,0.8-1.3,1.6-2.2,2.3c0-1,0-2.1-0.1-3c-0.1-1-0.2-1.9-0.3-2.8
		c-0.2-1.5-0.4-3.1-0.7-4.6c-0.3-1.5-0.8-2.6-1.4-3.3c-0.8-0.9-1.6-1.9-2.5-2.8c-0.9-1-1.8-1.8-2.7-2.5c-0.9-0.7-1.9-1.3-2.9-1.8
		s-2-0.7-2.9-0.7c-0.8,0-1.7,0.2-2.7,0.5s-1.9,0.9-2.7,1.8c-0.8,0.9-1.6,2.2-2.5,3.9c-0.9,1.7-1.6,3.5-2.3,5.6
		c-0.7,2.1-1.2,4.3-1.7,6.5s-0.7,4.5-0.7,6.7c0,0.6,0,1.2,0.1,1.7c-0.1,0.3-0.1,0.6-0.2,0.9c-0.3,1.5-0.8,3.1-1.3,4.6
		s-1.2,2.8-1.9,4c-0.7,1.1-1.6,1.7-2.5,1.7c-0.6,0-1-0.4-1.4-1.2c-0.4-0.8-0.6-1.7-0.8-2.8c-0.2-1-0.3-2.1-0.4-3s-0.1-1.7-0.1-2
		c0-4.6,0.6-9,1.7-13.2c0-0.1,0.1-0.4,0.2-0.7c0.1-0.4,0.3-0.8,0.5-1.2c0.2-0.5,0.3-0.9,0.5-1.4c0.1-0.5,0.2-0.8,0.2-1.1
		c0-0.7-0.4-1.3-1.2-1.7s-1.8-0.7-2.9-0.9c-1.1-0.2-2.2-0.3-3.3-0.4s-1.9-0.1-2.4-0.2h-0.3c-0.6-0.1-0.9-0.2-1.1-0.3
		c-0.2-0.1-0.3-0.4-0.3-0.8v-0.6l0.1-2v-0.5c0-1.3-0.5-2-1.6-2c-0.1,0-0.3,0-0.4,0c0-0.1,0-0.2,0-0.2c0-0.8-0.3-1.4-1-1.8
		c-0.6-0.4-1.5-0.7-2.5-0.9c-1-0.2-2.1-0.3-3.2-0.3c-1.1,0-2.2,0-3.2,0c-1,0-1.8-0.1-2.5-0.3s-1-0.4-1-0.8l1-12c0-0.4-0.3-0.7-1-1
		c-0.6-0.3-1.4-0.6-2.3-0.8c-0.9-0.2-1.7-0.4-2.5-0.5c-0.8-0.1-1.3-0.2-1.7-0.2c-0.2,0-0.4,0.4-0.6,1.1s-0.3,1.7-0.3,2.8
		c-0.1,1.1-0.1,2.3-0.1,3.6c0,1.3-0.1,2.5-0.1,3.6c0,1.1-0.1,2.1-0.2,2.8c-0.1,0.7-0.3,1.1-0.5,1.1c-3.1,0-5.5,0.1-7.1,0.2
		c-1.6,0.1-2.4,0.6-2.4,1.4c0,0.9,0.5,1.6,1.5,2c1,0.4,2.1,0.7,3.3,0.9c1.2,0.2,2.3,0.4,3.3,0.6c1,0.2,1.5,0.5,1.5,1
		c-0.1,2.8-0.2,5.8-0.4,9s-0.2,6.4-0.3,9.6v0.8c0,2.6,0.2,5.1,0.6,7.4s1.1,4.3,1.9,6c0.8,1.7,1.9,3,3.1,4c1.2,1,2.7,1.4,4.3,1.4
		c1.7,0,3.2-0.7,4.5-2.1c1.3-1.4,2.4-3.1,3.3-4.9c0.9-1.9,1.6-3.8,2.1-5.7c0.1-0.3,0.2-0.6,0.2-0.9c0.2-0.6,0.4-1.2,0.6-2
		c0.3-1.4,0.6-3,0.9-4.8s0.5-3.7,0.8-5.7l0.4-2.9c0.1-0.2,0.2-0.5,0.4-0.6c0.2-0.2,0.6-0.3,1.4-0.3c0.4,0,0.9,0.1,1.4,0.2
		s0.7,0.4,0.7,0.9c-0.1,1.6-0.2,3.2-0.4,4.8c-0.2,1.6-0.3,3.2-0.3,4.8c0,1.4,0.1,3.2,0.3,5.3c0.2,2.1,0.6,4.1,1.2,6.1s1.5,3.6,2.7,5
		s2.7,2.1,4.7,2.1c1.8,0,3.4-0.7,4.6-2.1c1.2-1.4,2.1-3,2.9-4.8c0.2-0.4,0.3-0.8,0.4-1.2c0.5,1.1,1.2,2.2,2,3.2c1,1.2,2.2,2.2,3.8,3
		c0.5,0.3,1.1,0.6,1.7,0.9c0.7,0.3,1.4,0.5,2.1,0.7s1.5,0.4,2.2,0.5s1.3,0.2,1.9,0.2c1.7,0,3.1-0.5,4.4-1.4c1.3-1,2.3-2.1,3.2-3.5
		c0.9-1.3,1.6-2.7,2.1-4.1c0.5-1.4,0.8-2.6,0.9-3.5c0.1-0.2,0.1-0.6,0.1-1c0-0.4,0.1-1.1,0.1-2.2c0.6-0.5,1.2-1,1.8-1.6
		s1.1-1.2,1.6-1.8c0.9-1.1,1.7-2.4,2.4-3.9c0.8-1.5,1.2-3.2,1.2-5.1C397.4,33.6,397.4,33.3,397.3,32.9z M338.2,52.5
		c-0.6,1.2-1.2,2.1-1.8,2.8s-1.4,1-2.2,1c-0.6,0-1-0.3-1.4-0.8c-0.4-0.6-0.7-1.3-1-2.2c-0.2-0.9-0.4-1.9-0.6-3
		c-0.1-1.1-0.2-2.2-0.2-3.4c0-3.1,0-6,0.1-8.8c0.1-2.8,0.1-5.3,0.2-7.4c0.1-2.1,0.2-3.9,0.3-5.2c0.1-1.3,0.2-2,0.2-2.2
		c0.1-0.2,0.7-0.4,1.7-0.6c1-0.2,2.1-0.3,3.4-0.4s2.4-0.2,3.5-0.3s1.8-0.1,2-0.1c0.5,0,0.9,0,1.2,0.1c-0.3,0.1-0.7,0.2-1,0.4
		c-0.5,0.2-0.9,0.5-1.2,0.8c-0.3,0.3-0.5,0.6-0.5,1l0.3,5.4c0.1,0.9,0.2,1.7,0.2,2.4v4.5c0,0.6,0,1.1,0,1.6c0,0.4,0,0.8,0,1.1v0.6
		c0,0.8-0.1,1.8-0.2,2.8c-0.1,0.4-0.2,0.8-0.4,1.3c-0.3,1.5-0.7,3-1.1,4.5C339.2,50,338.7,51.3,338.2,52.5z M384.1,51
		c-0.3,0.9-0.7,1.8-1.3,2.6c-0.6,0.8-1.3,1.5-2.3,2c-1,0.5-2.1,0.8-3.4,0.8c-1.1,0-2-0.2-2.8-0.6c-0.7-0.4-1.3-0.9-1.7-1.5
		s-0.7-1.3-0.9-2c-0.2-0.7-0.3-1.4-0.3-2.1l0.1-1.9c1,0.7,2,1.2,2.9,1.5c0.9,0.2,2.2,0.4,3.8,0.4c0.9,0,1.9-0.1,3.2-0.4
		c1.3-0.2,2.3-0.6,3-1.1C384.5,49.2,384.3,50,384.1,51z M384.9,42.7c0,0.3-0.6,0.7-1.7,1.3c-1.1,0.6-2.6,0.8-4.4,0.8
		c-2.4,0-4.1-0.6-5.1-1.7c-1-1.1-1.5-2.9-1.5-5.4c0-1.4,0.2-2.9,0.6-4.3c0.4-1.5,0.9-2.8,1.6-4c0.7-1.2,1.4-2.1,2.3-2.9
		s1.7-1.1,2.7-1.1c0.9,0,1.7,0.4,2.3,1.1c0.6,0.7,1.1,1.6,1.5,2.6c0.4,1,0.7,2.2,0.9,3.5s0.4,2.5,0.5,3.6c0.1,1.2,0.2,2.2,0.2,3
		c0,0.9,0,1.4,0,1.7V42.7z"/>
	<path class="st0" d="M239.2,58.1c-0.2,0.1-0.3,0.1-0.5,0.1c-1.3,0-2.4-0.5-3.1-1.5c-0.7-1-1.3-2.2-1.6-3.6
		c-0.3-1.4-0.5-2.9-0.6-4.5s-0.1-3-0.1-4.1c0-3.7,0.1-7.2,0.2-10.5s0.4-6.3,0.6-8.9c0.3-2.6,0.6-4.7,1.1-6.3c0.4-1.6,1-2.6,1.6-2.9
		c0-0.6-0.3-1.4-0.9-2.4c-0.6-1.1-1.3-2.1-2.3-3.2c-0.9-1.1-1.9-2-3.1-2.8c-1.1-0.8-2.3-1.2-3.4-1.2c-0.4,0-1,0.1-1.6,0.3
		c-0.6,0.2-1.1,0.8-1.3,1.7c-0.6,2.6-1.3,5.6-2.3,9.2c-1,3.6-1.9,7.1-2.9,10.6c-1,3.5-2,6.7-2.9,9.6s-1.5,5-1.9,6.4v-3.9
		c0-1.4,0-2.9,0-4.3c0-1.4-0.1-2.8-0.1-4.1c-0.1-1.3-0.1-2.3-0.2-3.1c-0.1-1.3-0.1-2.7-0.2-4.3c-0.1-1.6-0.2-3.2-0.4-4.7
		c-0.2-1.6-0.4-3.1-0.7-4.5c-0.3-1.4-0.7-2.7-1.2-3.7c-0.6-1.3-1.2-2.6-2-3.8c-0.8-1.3-1.7-2.4-2.7-3.4s-2.1-1.9-3.3-2.5
		s-2.4-1-3.6-1c-2.5,0-4.7,0.8-6.7,2.3s-3.8,3.6-5.2,6.1c-1.4,2.5-2.5,5.2-3.3,8.2c-0.8,3-1.1,6-1.1,8.9c0,2.1,0.2,4.2,0.7,6.1
		c0.5,1.9,1.1,3.6,2.1,5.1c0.2,0.4,0.5,0.7,0.7,1c-0.1,0.2-0.2,0.4-0.4,0.6c-0.6,0.8-1.3,1.6-2.2,2.3c0-1,0-2.1-0.1-3
		c-0.1-1-0.2-1.9-0.3-2.8c-0.2-1.5-0.4-3.1-0.7-4.6c-0.3-1.5-0.8-2.6-1.4-3.3c-0.8-0.9-1.6-1.9-2.5-2.8c-0.9-1-1.8-1.8-2.7-2.5
		c-0.9-0.7-1.9-1.3-2.9-1.8s-2-0.7-2.9-0.7c-0.8,0-1.7,0.2-2.7,0.5s-1.9,0.9-2.7,1.8c-0.8,0.9-1.6,2.2-2.5,3.9s-1.6,3.5-2.3,5.6
		c-0.7,2.1-1.2,4.3-1.7,6.5c-0.3,1.7-0.6,3.4-0.6,5c-0.1,0.3-0.2,0.6-0.2,0.9c-0.3,1.5-0.7,3-1.1,4.5c-0.4,1.5-0.9,2.8-1.5,4
		c-0.6,1.2-1.2,2.1-1.8,2.8s-1.4,1-2.2,1c-0.6,0-1-0.3-1.4-0.8c-0.4-0.6-0.7-1.3-1-2.2c-0.2-0.9-0.4-1.9-0.6-3
		c-0.1-1.1-0.2-2.2-0.2-3.4c0-3.1,0-6,0.1-8.8c0.1-2.8,0.1-5.3,0.2-7.4c0.1-2.1,0.2-3.9,0.3-5.2c0.1-1.3,0.2-2,0.2-2.2
		c0.1-0.2,0.7-0.4,1.7-0.6c1-0.2,2.1-0.3,3.4-0.4c1.2-0.1,2.4-0.2,3.5-0.3s1.8-0.1,2-0.1c0.9,0,1.5,0.1,1.7,0.3
		c0.2,0.2,0.4,0.3,0.5,0.3c0.2,0,0.3-0.1,0.5-0.4c0.1-0.3,0.2-0.5,0.2-0.6c0-0.8-0.3-1.4-1-1.8c-0.6-0.4-1.5-0.7-2.5-0.9
		c-1-0.2-2.1-0.3-3.2-0.3c-1.1,0-2.2,0-3.2,0c-1,0-1.8-0.1-2.5-0.3s-1-0.4-1-0.8l1-12c0-0.4-0.3-0.7-1-1c-0.6-0.3-1.4-0.6-2.3-0.8
		c-0.9-0.2-1.7-0.4-2.5-0.5C143.8,3.1,143.3,3,143,3c-0.2,0-0.4,0.4-0.6,1.1s-0.3,1.7-0.3,2.8c-0.1,1.1-0.1,2.3-0.1,3.6
		c0,1.3-0.1,2.5-0.1,3.6c0,1.1-0.1,2.1-0.2,2.8c-0.1,0.7-0.3,1.1-0.5,1.1c-3.1,0-5.5,0.1-7.1,0.2c-1.6,0.1-2.4,0.6-2.4,1.4
		c0,0.9,0.5,1.6,1.5,2s2.1,0.7,3.3,0.9c1.2,0.2,2.3,0.4,3.3,0.6c1,0.2,1.5,0.5,1.5,1c-0.1,2.8-0.2,5.8-0.4,9s-0.2,6.4-0.3,9.6v0.8
		c0,2.6,0.2,5.1,0.6,7.4s1.1,4.3,1.9,6c0.8,1.7,1.9,3,3.1,4c1.2,1,2.7,1.4,4.3,1.4c1.7,0,3.2-0.7,4.5-2.1c1.3-1.4,2.4-3.1,3.3-4.9
		c0.5-0.9,0.9-1.9,1.2-2.9c0.1,0.2,0.1,0.3,0.2,0.5c0.5,1.3,1.3,2.6,2.3,3.7s2.2,2.2,3.8,3c0.5,0.3,1.1,0.6,1.7,0.9
		c0.7,0.3,1.4,0.5,2.1,0.7c0.7,0.2,1.5,0.4,2.2,0.5c0.7,0.1,1.3,0.2,1.9,0.2c1.7,0,3.1-0.5,4.4-1.4s2.3-2.1,3.2-3.5
		c0.9-1.3,1.6-2.7,2.1-4.1c0.5-1.4,0.8-2.6,0.9-3.5c0.1-0.2,0.1-0.6,0.1-1c0-0.4,0.1-1.1,0.1-2.2c0.6-0.5,1.2-1,1.8-1.6
		c0.6-0.6,1.1-1.2,1.6-1.8c0.5-0.7,1-1.4,1.5-2.3c0.1,0.1,0.2,0.2,0.4,0.2c1.4,0.9,3.1,1.3,5.1,1.3c0.1,0,0.4,0,0.9-0.1
		s0.9-0.2,1.4-0.3s0.9-0.3,1.3-0.5s0.6-0.5,0.6-0.9c0-0.6-0.2-1.1-0.6-1.5s-0.9-0.7-1.5-1c-0.6-0.2-1.1-0.4-1.7-0.5
		c-0.7-0.1-1.2-0.1-1.8,0c-0.7,0-1.4,0-2.1-0.3c-0.7-0.3-1.3-1-1.6-1.7c-1-2-1.3-4.4-1.4-6.6c-0.1-1.2-0.1-2.1-0.1-2.5
		c0-1.8,0.2-4,0.6-6.4c0.4-2.4,1-4.7,1.9-6.9s2.1-4,3.5-5.5c1.5-1.5,3.3-2.3,5.5-2.3c1.1,0,2.1,0.4,2.9,1.3s1.5,2.3,2.1,4.2
		c0.6,1.9,1,4.5,1.2,7.6c0.2,3.1,0.4,7,0.4,11.5c0,1.4,0,3.2-0.1,5.2c-0.1,2.1-0.2,4.2-0.4,6.3s-0.3,4.2-0.4,6.1
		c-0.1,1.9-0.1,3.4-0.1,4.4c0,1.6,0.2,2.9,0.7,3.9s1.3,1.9,2.3,2.8c0.8,0.6,1.5,1,2.3,1.3c0.7,0.2,1.7,0.4,2.9,0.4h0.6
		c0.6,0,1.1-0.1,1.6-0.2c0.4-0.1,0.8-0.2,1.1-0.4s0.5-0.3,0.4-0.5c0-0.1-0.1-0.4-0.4-0.9s-0.4-1-0.4-1.7c0-1.2,0.2-2.7,0.5-4.6
		c0.3-1.9,0.8-4,1.3-6.3c0.6-2.3,1.2-4.6,1.9-7c0.7-2.4,1.4-4.6,2.1-6.7s1.3-3.9,1.9-5.4s1.1-2.6,1.4-3.1c0.3,0,0.5,0.4,0.5,1.2
		c0,0.2,0,1-0.1,2.4c-0.1,1.3-0.1,2.9-0.1,4.6c0,1.7-0.1,3.3-0.1,4.9s-0.1,2.7-0.1,3.3c0,2.1,0.1,4.4,0.2,6.9c0.2,2.5,0.6,4.9,1.3,7
		c0.7,2.2,1.8,4,3.2,5.5c1.4,1.5,3.5,2.2,6.1,2.2c0.3,0,0.7-0.1,1.2-0.2c0.5-0.1,0.9-0.3,1.3-0.5c0.4-0.2,0.7-0.5,1-0.9
		c0.3-0.4,0.4-0.8,0.4-1.4c0-0.1-0.1-0.3-0.2-0.6C239.7,57.9,239.4,58,239.2,58.1z M178.2,51c-0.3,0.9-0.7,1.8-1.3,2.6
		c-0.6,0.8-1.3,1.5-2.3,2c-1,0.5-2.1,0.8-3.5,0.8c-1.1,0-2-0.2-2.8-0.6s-1.3-0.9-1.7-1.5c-0.4-0.6-0.7-1.3-0.9-2
		c-0.2-0.7-0.3-1.4-0.3-2.1l0.1-1.9c1,0.7,2,1.2,2.9,1.5c0.9,0.2,2.2,0.4,3.8,0.4c0.9,0,1.9-0.1,3.2-0.4c1.3-0.2,2.3-0.6,3-1.1
		C178.6,49.2,178.4,50,178.2,51z M179,42.7c0,0.3-0.6,0.7-1.7,1.3c-1.1,0.6-2.6,0.8-4.4,0.8c-2.4,0-4.1-0.6-5.1-1.7
		c-1-1.1-1.5-2.9-1.5-5.4c0-1.4,0.2-2.9,0.6-4.3c0.4-1.5,0.9-2.8,1.6-4s1.4-2.1,2.3-2.9c0.9-0.7,1.7-1.1,2.7-1.1
		c0.9,0,1.7,0.4,2.3,1.1s1.1,1.6,1.5,2.6s0.7,2.2,0.9,3.5s0.4,2.5,0.5,3.6c0.1,1.2,0.2,2.2,0.2,3c0,0.9,0,1.4,0,1.7V42.7z"/>
	<path class="st0" d="M130.5,32c0.4,0,0.8,0.1,1.1,0.3c0.3,0.2,0.7,0.5,1,0.7c0.3,0.3,0.6,0.5,0.8,0.7c0.2,0.2,0.5,0.3,0.7,0.3
		c0.9,0,1.6-0.3,2.1-0.8c0.6-0.5,1-1.1,1.3-1.8c0.3-0.7,0.6-1.4,0.7-2.1c0.2-0.7,0.2-1.2,0.2-1.6c0-1.2-0.5-2.1-1.6-2.5
		c-1-0.4-2.1-0.6-3.1-0.6c-1.1,0-2.6,0.2-4.6,0.6c-2,0.4-3.9,1-5.8,1.8c-1.9,0.9-3.5,2-4.9,3.5c-1.4,1.5-2.1,3.3-2.1,5.4
		c0,1.5,0.4,2.9,1.1,4.2c0.7,1.3,1.6,2.5,2.7,3.5c1.1,1.1,2.2,2.1,3.5,3s2.4,1.8,3.5,2.7c1.1,0.9,2,1.7,2.7,2.5
		c0.7,0.8,1.1,1.6,1.1,2.5c0,0.9-0.4,1.5-1.2,1.8c-0.8,0.3-1.5,0.5-2,0.5c-1.1,0-2.1-0.2-2.9-0.7c-0.9-0.5-1.6-1-2.3-1.6
		c-0.7-0.6-1.4-1.1-2-1.6c-0.6-0.5-1.3-0.7-2-0.7c-0.5,0-1,0.1-1.5,0.4c-0.5,0.3-0.8,0.8-0.8,1.4c0,1.1,0.4,2,1.2,2.8
		c0.8,0.7,1.8,1.3,3,1.7c1.2,0.4,2.4,0.7,3.7,0.9c1.3,0.2,2.3,0.3,3.2,0.3c0.6,0,1.5,0,2.7-0.1c1.3-0.1,2.5-0.3,3.8-0.7
		c1.3-0.4,2.4-1,3.4-1.7c1-0.8,1.5-1.9,1.5-3.4c0-1.2-0.7-2.5-2.2-3.8c-1.4-1.3-3-2.7-4.8-4c-1.7-1.3-3.3-2.7-4.8-4
		c-1.4-1.3-2.2-2.6-2.2-3.9c0-1.4,0.4-2.7,1.3-4C126.8,32.6,128.3,32,130.5,32z"/>
	<path class="st0" d="M313.1,32c0.4,0,0.8,0.1,1.1,0.3c0.3,0.2,0.7,0.5,1,0.7c0.3,0.3,0.6,0.5,0.8,0.7c0.2,0.2,0.5,0.3,0.7,0.3
		c0.9,0,1.6-0.3,2.1-0.8c0.6-0.5,1-1.1,1.3-1.8c0.3-0.7,0.6-1.4,0.7-2.1c0.2-0.7,0.2-1.2,0.2-1.6c0-1.2-0.5-2.1-1.6-2.5
		c-1-0.4-2.1-0.6-3.1-0.6c-1.1,0-2.6,0.2-4.6,0.6c-2,0.4-3.9,1-5.8,1.8c-1.9,0.9-3.5,2-4.9,3.5c-1.4,1.5-2.1,3.3-2.1,5.4
		c0,1.5,0.4,2.9,1.1,4.2c0.7,1.3,1.6,2.5,2.7,3.5c1.1,1.1,2.2,2.1,3.5,3s2.4,1.8,3.5,2.7c1.1,0.9,2,1.7,2.7,2.5
		c0.7,0.8,1.1,1.6,1.1,2.5c0,0.9-0.4,1.5-1.2,1.8s-1.5,0.5-2,0.5c-1.1,0-2.1-0.2-2.9-0.7c-0.9-0.5-1.6-1-2.3-1.6s-1.4-1.1-2-1.6
		c-0.6-0.5-1.3-0.7-2-0.7c-0.4,0-0.8,0.1-1.1,0.3c0.3-0.7,0.6-1.4,0.8-2.1c0.6-1.9,0.8-3.6,0.8-5.2v-0.6c0-1-0.5-1.6-1.4-1.6
		c-0.4,0-0.7,0.2-0.9,0.5c-0.2,0.3-0.4,0.9-0.6,1.7c-0.2,1.3-0.6,2.6-1,4c-0.4,1.4-1,2.6-1.7,3.7c-0.7,1.1-1.7,2-2.8,2.7
		c-1.1,0.7-2.6,1.1-4.4,1.1c-1.3,0-2.4-0.3-3.3-0.9c-0.9-0.6-1.6-1.3-2.2-2s-1-1.5-1.2-2.3c-0.3-0.8-0.4-1.4-0.4-1.8v-2.7
		c0.4,0.1,0.9,0.2,1.3,0.3c0.5,0.1,0.8,0.1,1.2,0.1c1.7,0,3.3-0.5,4.6-1.5c1.3-1,2.5-2.3,3.4-3.8c0.9-1.5,1.6-3.1,2.1-4.9
		s0.7-3.4,0.7-4.8L295,31c-0.1-1-0.3-2.1-0.7-3c-0.4-1-1-1.8-1.7-2.6c-0.7-0.7-1.6-1.3-2.6-1.8c-1-0.5-2-0.7-3.1-0.7
		c-2.3,0-4.2,0.8-5.8,2.3c-1.6,1.5-2.9,3.4-4,5.6c-1,2.2-1.8,4.6-2.3,7.2c-0.5,2.6-0.7,4.9-0.7,7.1c0,1.6,0.1,3.2,0.4,4.7
		c-0.2,0.1-0.3,0.2-0.5,0.4c-0.3,0.4-0.6,0.8-0.9,1.3c-0.3,0.5-0.6,0.9-1,1.3c-0.4,0.4-0.9,0.6-1.6,0.6c-0.7,0-1.3-0.4-1.8-1.2
		c-0.5-0.8-0.8-1.9-1.2-3.2c-0.3-1.3-0.5-2.7-0.6-4.2s-0.2-3-0.2-4.4c0-1.1,0-1.9,0-2.5c0-0.6,0.1-1.1,0.1-1.7
		c0-0.5,0.1-1.1,0.2-1.7c0.1-0.6,0.2-1.5,0.3-2.6c0-1.8-0.4-2.9-1.3-3.3c-0.9-0.4-2.2-0.6-4-0.6c-0.7,0-1.5,0.1-2.4,0.2
		c-0.9,0.1-1.4,0.4-1.5,0.9c0,0.7,0.1,1.3,0.4,1.7c0.2,0.5,0.4,1,0.4,1.5c-0.1,7.7-0.7,13.4-1.7,17s-2.4,5.4-4.1,5.4
		c-0.7,0-1.2-0.4-1.6-1.2c-0.4-0.8-0.6-1.7-0.8-2.9c-0.2-1.1-0.2-2.4-0.3-3.7c0-1.3,0-2.6,0-3.7V26.9c0-0.5-0.3-0.9-1-1.3
		c-0.6-0.4-1.4-0.7-2.2-0.9c-0.8-0.2-1.6-0.4-2.3-0.5c-0.8-0.1-1.3-0.2-1.6-0.2c-0.5,0-0.8,0.1-0.8,0.3c0,0.2-0.1,0.5-0.2,0.9v22.2
		c0.2,4.4,1.1,7.8,2.6,10s4.2,3.4,8.1,3.4c1.3,0,2.5-0.5,3.4-1.6c0.9-1.1,1.6-2.3,2.2-3.6s1-2.6,1.2-3.8s0.5-2,0.7-2.4
		c0.8,2.5,1.8,4.4,3,5.6l0.8,0.7c0.7,0.5,1.5,0.9,2.2,1.1c0.7,0.2,1.6,0.4,2.7,0.4c0.6,0,1.3-0.1,2.1-0.3c0.9-0.2,1.7-0.6,2.5-1.1
		c0.8-0.4,1.4-1,1.9-1.7c0.4,0.9,0.8,1.6,1.4,2.4c1.1,1.5,2.4,2.6,4.1,3.5c1.7,0.9,3.7,1.3,6.1,1.3c2.5,0,4.7-0.6,6.5-1.7
		s3.3-2.5,4.5-4.1c0.2-0.3,0.5-0.7,0.7-1.1c0.1,0.9,0.5,1.6,1.2,2.2c0.8,0.7,1.8,1.3,3,1.7c1.2,0.4,2.4,0.7,3.7,0.9
		c1.3,0.2,2.3,0.3,3.2,0.3c0.6,0,1.5,0,2.7-0.1c1.3-0.1,2.5-0.3,3.8-0.7c1.3-0.4,2.4-1,3.4-1.7c1-0.8,1.5-1.9,1.5-3.4
		c0-1.2-0.7-2.5-2.2-3.8c-1.4-1.3-3-2.7-4.8-4c-1.7-1.3-3.3-2.7-4.8-4c-1.4-1.3-2.2-2.6-2.2-3.9c0-1.4,0.4-2.7,1.3-4
		C309.4,32.6,310.9,32,313.1,32z M282.4,41.3c0-0.4,0.1-1.3,0.4-2.7c0.2-1.4,0.6-2.8,1.1-4.3c0.5-1.5,1.2-2.8,2-4
		c0.8-1.2,1.7-1.7,2.9-1.7c0.7,0,1.2,0.3,1.5,0.8s0.4,1.1,0.4,1.6v0.6c0,0.9-0.1,2-0.4,3.3c-0.2,1.3-0.6,2.7-1.2,4
		c-0.5,1.3-1.2,2.4-2.1,3.3s-1.9,1.4-3.1,1.4h-0.5c-0.6,0-0.9-0.2-1-0.5c-0.1-0.3-0.1-0.8-0.1-1.3V41.3z"/>
</g>
</svg>
